M48
;Layer_Color=9474304
;FILE_FORMAT=2:5
INCH,LZ
;TYPE=PLATED
T1F00S00C0.01181
T2F00S00C0.03150
%
T01
X-0033169Y-0055134
X-0029539Y-0040858
X-0039429Y-0039567
X-0041831Y-0043406
X-0036013Y-0035197
X-0038916Y-0029176
X-0037439Y-0026715
X-0029002Y-0026668
X-0027526Y-0029128
X-002372Y-0030315
X-0018406Y-0030512
X-0031496Y-0030709
X-0031791Y-001624
X-0021214Y-0017562
X-001624Y-001811
X-0011097Y-0018095
X-000208Y-0023456
X0001107Y-0008252
X-0007554Y-0005397
X-0017717Y-0000492
X-0017618Y0008071
X-002687Y0008268
Y-0000591
X-0038771Y-00012
X-0038858Y0002772
X-004277Y0008909
X-0045866Y000876
X-0037768Y0017726
X-0041882Y0024795
X-0032407Y0027215
X-0027916Y0028766
X-0026305Y0033219
X-0026397Y0037463
X-0023254Y003755
Y0040503
X-0016142Y0040551
Y0037598
Y0034646
Y0031693
X-0014261Y0024063
X-0027898Y0020313
X-0001245Y0012807
X-0000388Y0007619
X0003076Y0029937
X-0002303Y-0043503
X-0016929Y-0045374
X-0041732Y-0012303
X-0023254Y0043455
X-0016142Y0043504
X-0008224Y0043679
X004252Y0042618
T02
X0019783Y003937
X0033563
M30
