G04*
G04 #@! TF.GenerationSoftware,Altium Limited,Altium Designer,20.2.5 (213)*
G04*
G04 Layer_Color=8421504*
%FSLAX25Y25*%
%MOIN*%
G70*
G04*
G04 #@! TF.SameCoordinates,C660A1F6-99E0-4939-AC29-5E4AD158EB90*
G04*
G04*
G04 #@! TF.FilePolarity,Positive*
G04*
G01*
G75*
%ADD12R,0.02165X0.01772*%
%ADD13R,0.01968X0.01378*%
%ADD14R,0.01968X0.01181*%
%ADD15R,0.02756X0.06299*%
%ADD16R,0.03937X0.02756*%
%ADD17R,0.00984X0.02362*%
%ADD18R,0.02362X0.00984*%
%ADD19R,0.00787X0.01575*%
%ADD20R,0.01575X0.00787*%
%ADD21R,0.14567X0.14567*%
%ADD22R,0.03543X0.01575*%
%ADD23R,0.07874X0.03937*%
%ADD24R,0.02362X0.02756*%
%ADD25R,0.02756X0.02362*%
%ADD26R,0.03937X0.01968*%
%ADD27R,0.01968X0.03937*%
%ADD28R,0.00787X0.01968*%
%ADD29R,0.03543X0.02362*%
%ADD30R,0.00709X0.01772*%
%ADD31R,0.02165X0.01772*%
%ADD32R,0.07874X0.03937*%
D12*
X-41919Y19865D02*
D03*
X-37785D02*
D03*
Y22818D02*
D03*
X-41919D02*
D03*
D13*
X-39567Y-37697D02*
D03*
Y-33760D02*
D03*
X-32480D02*
D03*
D14*
Y-37697D02*
D03*
D15*
X-36024Y-35728D02*
D03*
X2697Y-39370D02*
D03*
X-2303D02*
D03*
X-7303D02*
D03*
X-12303D02*
D03*
D16*
X-9129Y22260D02*
D03*
Y29740D02*
D03*
X320D02*
D03*
Y26000D02*
D03*
Y22260D02*
D03*
D17*
X-21752Y-33456D02*
D03*
X-23720D02*
D03*
X-25689D02*
D03*
X-27657D02*
D03*
Y-38456D02*
D03*
X-25689D02*
D03*
X-23720D02*
D03*
X-21752D02*
D03*
D18*
X-28189Y-35956D02*
D03*
X-21220D02*
D03*
D19*
X-29208Y13401D02*
D03*
X-27633D02*
D03*
X-26058D02*
D03*
X-24483D02*
D03*
X-22908D02*
D03*
X-21334D02*
D03*
X-19759D02*
D03*
X-18184D02*
D03*
X-16609D02*
D03*
X-15034D02*
D03*
X-16609Y-5496D02*
D03*
X-18184D02*
D03*
X-19759D02*
D03*
X-21334D02*
D03*
X-22908D02*
D03*
X-24483D02*
D03*
X-26058D02*
D03*
X-27633D02*
D03*
X-29208D02*
D03*
X-15034D02*
D03*
D20*
X-12672Y11039D02*
D03*
Y9465D02*
D03*
Y7890D02*
D03*
Y6315D02*
D03*
Y4740D02*
D03*
Y3165D02*
D03*
Y1591D02*
D03*
Y16D02*
D03*
Y-1559D02*
D03*
Y-3134D02*
D03*
X-31570Y3165D02*
D03*
Y4740D02*
D03*
Y6315D02*
D03*
Y11039D02*
D03*
Y9465D02*
D03*
Y7890D02*
D03*
Y-3134D02*
D03*
Y-1559D02*
D03*
Y16D02*
D03*
Y1591D02*
D03*
D21*
X-22121Y3953D02*
D03*
D22*
X-11885Y36827D02*
D03*
Y39386D02*
D03*
Y41945D02*
D03*
X-3223D02*
D03*
Y39386D02*
D03*
Y36827D02*
D03*
D23*
X41339Y86630D02*
D03*
X-41339D02*
D03*
D24*
X-3617Y-1953D02*
D03*
X-7554D02*
D03*
X-2387Y3165D02*
D03*
X-6324D02*
D03*
X-38780Y-23240D02*
D03*
X-34843D02*
D03*
X-30709Y-22638D02*
D03*
X-26772D02*
D03*
X-38780Y-53937D02*
D03*
X-42717D02*
D03*
X-6594Y-45965D02*
D03*
X-2657D02*
D03*
X-23536Y-43122D02*
D03*
X-27473D02*
D03*
X-34244Y-42340D02*
D03*
X-38181D02*
D03*
X-23647Y20142D02*
D03*
X-19710D02*
D03*
X-6373Y7890D02*
D03*
X-2436D02*
D03*
X-35630Y8858D02*
D03*
X-39567D02*
D03*
X-38005Y15189D02*
D03*
X-41942D02*
D03*
X-37993Y27370D02*
D03*
X-41930D02*
D03*
X-23647Y33219D02*
D03*
X-19710D02*
D03*
X-18231Y-21143D02*
D03*
X-14294D02*
D03*
D25*
X1107Y-15339D02*
D03*
Y-11402D02*
D03*
X-19710Y28298D02*
D03*
Y24361D02*
D03*
X-42236Y-5131D02*
D03*
Y-9068D02*
D03*
X-19710Y42077D02*
D03*
Y38140D02*
D03*
X1107Y-5890D02*
D03*
Y-1953D02*
D03*
X1107Y-23456D02*
D03*
Y-19519D02*
D03*
X1944Y7102D02*
D03*
Y3165D02*
D03*
X-14247Y21275D02*
D03*
Y17338D02*
D03*
X-27953Y22343D02*
D03*
Y26280D02*
D03*
X5438Y26000D02*
D03*
Y29937D02*
D03*
X-41043Y2756D02*
D03*
Y-1181D02*
D03*
X-36571Y2803D02*
D03*
Y-1134D02*
D03*
X-35895Y-19049D02*
D03*
Y-15112D02*
D03*
X-32425Y20313D02*
D03*
Y24250D02*
D03*
X-31471Y-9138D02*
D03*
Y-13075D02*
D03*
X-11097Y-11402D02*
D03*
Y-15339D02*
D03*
X-16215Y-11795D02*
D03*
Y-15732D02*
D03*
X-21217Y-11193D02*
D03*
Y-15130D02*
D03*
X4257Y37417D02*
D03*
Y41354D02*
D03*
X-22515Y-24492D02*
D03*
Y-20555D02*
D03*
D26*
X-5192Y-18488D02*
D03*
Y-14551D02*
D03*
Y-6677D02*
D03*
Y-10614D02*
D03*
D27*
Y15764D02*
D03*
X-1255D02*
D03*
X-9129D02*
D03*
D28*
X-36909Y-70866D02*
D03*
X-38484D02*
D03*
D29*
X-37330Y-11037D02*
D03*
Y-5131D02*
D03*
D30*
X3167Y16748D02*
D03*
X4560D02*
D03*
D31*
X3863Y13795D02*
D03*
D32*
X-19710Y51428D02*
D03*
Y72688D02*
D03*
M02*
