G04*
G04 #@! TF.GenerationSoftware,Altium Limited,Altium Designer,20.2.5 (213)*
G04*
G04 Layer_Color=65535*
%FSLAX25Y25*%
%MOIN*%
G70*
G04*
G04 #@! TF.SameCoordinates,C660A1F6-99E0-4939-AC29-5E4AD158EB90*
G04*
G04*
G04 #@! TF.FilePolarity,Positive*
G04*
G01*
G75*
%ADD10C,0.01000*%
%ADD11C,0.00591*%
D10*
X-31392Y-5356D02*
G03*
X-31392Y-5356I-200J0D01*
G01*
X-3123Y34427D02*
G03*
X-3123Y34427I-200J0D01*
G01*
X-19210Y55365D02*
G03*
X-19210Y55365I-500J0D01*
G01*
X-1264Y68629D02*
X-1714Y69078D01*
X-2389Y69303D01*
X-3289D01*
X-3963Y69078D01*
X-4413Y68629D01*
Y68179D01*
X-4188Y67729D01*
X-3963Y67504D01*
X-3514Y67279D01*
X-2164Y66829D01*
X-1714Y66604D01*
X-1489Y66379D01*
X-1264Y65929D01*
Y65255D01*
X-1714Y64805D01*
X-2389Y64580D01*
X-3289D01*
X-3963Y64805D01*
X-4413Y65255D01*
X-207Y66379D02*
X2492D01*
Y66829D01*
X2267Y67279D01*
X2042Y67504D01*
X1592Y67729D01*
X917D01*
X467Y67504D01*
X18Y67054D01*
X-207Y66379D01*
Y65929D01*
X18Y65255D01*
X467Y64805D01*
X917Y64580D01*
X1592D01*
X2042Y64805D01*
X2492Y65255D01*
X3504Y66379D02*
X6203D01*
Y66829D01*
X5978Y67279D01*
X5753Y67504D01*
X5303Y67729D01*
X4628D01*
X4179Y67504D01*
X3729Y67054D01*
X3504Y66379D01*
Y65929D01*
X3729Y65255D01*
X4179Y64805D01*
X4628Y64580D01*
X5303D01*
X5753Y64805D01*
X6203Y65255D01*
X7215Y66379D02*
X9914D01*
Y66829D01*
X9689Y67279D01*
X9464Y67504D01*
X9014Y67729D01*
X8340D01*
X7890Y67504D01*
X7440Y67054D01*
X7215Y66379D01*
Y65929D01*
X7440Y65255D01*
X7890Y64805D01*
X8340Y64580D01*
X9014D01*
X9464Y64805D01*
X9914Y65255D01*
X13625Y69303D02*
Y64580D01*
Y67054D02*
X13176Y67504D01*
X12726Y67729D01*
X12051D01*
X11601Y67504D01*
X11151Y67054D01*
X10926Y66379D01*
Y65929D01*
X11151Y65255D01*
X11601Y64805D01*
X12051Y64580D01*
X12726D01*
X13176Y64805D01*
X13625Y65255D01*
X18034Y68629D02*
X17584Y69078D01*
X16909Y69303D01*
X16010D01*
X15335Y69078D01*
X14885Y68629D01*
Y68179D01*
X15110Y67729D01*
X15335Y67504D01*
X15785Y67279D01*
X17134Y66829D01*
X17584Y66604D01*
X17809Y66379D01*
X18034Y65929D01*
Y65255D01*
X17584Y64805D01*
X16909Y64580D01*
X16010D01*
X15335Y64805D01*
X14885Y65255D01*
X19091Y66379D02*
X21790D01*
Y66829D01*
X21565Y67279D01*
X21340Y67504D01*
X20890Y67729D01*
X20216D01*
X19766Y67504D01*
X19316Y67054D01*
X19091Y66379D01*
Y65929D01*
X19316Y65255D01*
X19766Y64805D01*
X20216Y64580D01*
X20890D01*
X21340Y64805D01*
X21790Y65255D01*
X22802Y67729D02*
Y64580D01*
Y66829D02*
X23477Y67504D01*
X23927Y67729D01*
X24602D01*
X25052Y67504D01*
X25276Y66829D01*
Y64580D01*
X27188Y69303D02*
Y65480D01*
X27413Y64805D01*
X27863Y64580D01*
X28313D01*
X26514Y67729D02*
X28088D01*
X29438Y69303D02*
X29662Y69078D01*
X29888Y69303D01*
X29662Y69528D01*
X29438Y69303D01*
X29662Y67729D02*
Y64580D01*
X30720Y67729D02*
Y64580D01*
Y66829D02*
X31394Y67504D01*
X31844Y67729D01*
X32519D01*
X32969Y67504D01*
X33194Y66829D01*
Y64580D01*
X34431Y66379D02*
X37130D01*
Y66829D01*
X36905Y67279D01*
X36680Y67504D01*
X36230Y67729D01*
X35555D01*
X35106Y67504D01*
X34656Y67054D01*
X34431Y66379D01*
Y65929D01*
X34656Y65255D01*
X35106Y64805D01*
X35555Y64580D01*
X36230D01*
X36680Y64805D01*
X37130Y65255D01*
X38142Y69303D02*
Y64580D01*
X-4413Y61235D02*
X-2614Y56512D01*
X-815Y61235D02*
X-2614Y56512D01*
X-207Y60335D02*
X243Y60560D01*
X917Y61235D01*
Y56512D01*
X3481Y56962D02*
X3257Y56737D01*
X3481Y56512D01*
X3706Y56737D01*
X3481Y56962D01*
X6091Y61235D02*
X5416Y61010D01*
X4966Y60335D01*
X4741Y59211D01*
Y58536D01*
X4966Y57411D01*
X5416Y56737D01*
X6091Y56512D01*
X6540D01*
X7215Y56737D01*
X7665Y57411D01*
X7890Y58536D01*
Y59211D01*
X7665Y60335D01*
X7215Y61010D01*
X6540Y61235D01*
X6091D01*
X35338Y86835D02*
X31927D01*
X33633Y88541D02*
Y85130D01*
X-32261Y86730D02*
X-35672D01*
D11*
X-40018Y-39403D02*
X-32118D01*
X-40035Y-32043D02*
X-32135D01*
X5403Y-42520D02*
X8189D01*
X-17795D02*
X-15009D01*
X-17795Y-30709D02*
X8095D01*
X8152Y-42463D02*
Y-30652D01*
X-17795Y-42520D02*
Y-30709D01*
X-6680Y19260D02*
X-2180D01*
X-6680Y32460D02*
X-2180D01*
X-20328Y-39469D02*
X-19540D01*
Y-37107D01*
X-29869Y-32442D02*
X-29082D01*
X-29869Y-34805D02*
Y-32442D01*
Y-39469D02*
X-29082D01*
X-29869D02*
Y-37107D01*
X-20374Y-32412D02*
X-19587D01*
Y-34775D02*
Y-32412D01*
X-10123Y44327D02*
X-4823D01*
X-10223Y34427D02*
X-4923D01*
X-5598Y-3418D02*
Y-451D01*
X-358Y-13358D02*
X2609D01*
X-4367Y1700D02*
Y4667D01*
X-36799Y-24742D02*
Y-21775D01*
X-28728Y-24140D02*
Y-21172D01*
X-40760Y-55402D02*
Y-52435D01*
X-2392Y-7777D02*
Y-5477D01*
X-2355Y12964D02*
X-55D01*
X-21212Y26317D02*
X-18245D01*
X-39331Y-8037D02*
X-35331D01*
X-43738Y-7112D02*
X-40770D01*
X-21212Y40097D02*
X-18245D01*
X-861Y-6874D02*
Y-5693D01*
X-74Y-3921D02*
X2387D01*
X-861Y-24441D02*
Y-23259D01*
X-74Y-21488D02*
X2387D01*
X3912Y6905D02*
Y8087D01*
X665Y5134D02*
X3125D01*
X-4614Y-47467D02*
Y-44499D01*
X-25516Y-44587D02*
Y-41620D01*
X-15749Y19295D02*
X-12782D01*
X-29418Y24323D02*
X-26451D01*
X-36224Y-43806D02*
Y-40838D01*
X3973Y27980D02*
X6940D01*
X-42545Y775D02*
X-39578D01*
X-38073Y823D02*
X-35106D01*
X-37361Y-17069D02*
X-34393D01*
X-33891Y22294D02*
X-30924D01*
X-32973Y-11118D02*
X-30006D01*
X-12599Y-13382D02*
X-9632D01*
X-17718Y-13776D02*
X-14750D01*
X-21667Y18640D02*
Y21608D01*
X-4392Y6388D02*
Y9355D01*
X-37610Y7393D02*
Y10360D01*
X-22719Y-13173D02*
X-19751D01*
X-39986Y13724D02*
Y16691D01*
X-39974Y25904D02*
Y28872D01*
X-21667Y31717D02*
Y34684D01*
X2772Y39374D02*
X5720D01*
X-23999Y-22536D02*
X-21052D01*
X-16250Y-22612D02*
Y-19680D01*
X-23710Y53928D02*
X-23647Y69932D01*
X-15773D02*
X-15710Y53928D01*
M02*
