G04*
G04 #@! TF.GenerationSoftware,Altium Limited,Altium Designer,20.2.5 (213)*
G04*
G04 Layer_Physical_Order=2*
G04 Layer_Color=16711680*
%FSLAX25Y25*%
%MOIN*%
G70*
G04*
G04 #@! TF.SameCoordinates,C660A1F6-99E0-4939-AC29-5E4AD158EB90*
G04*
G04*
G04 #@! TF.FilePolarity,Positive*
G04*
G01*
G75*
%ADD23R,0.07874X0.03937*%
%ADD54C,0.00787*%
%ADD58C,0.02362*%
%ADD59C,0.04331*%
%ADD60C,0.02362*%
G36*
X36772Y89027D02*
Y84031D01*
X45906D01*
Y88523D01*
X46256Y88757D01*
X46406Y88761D01*
X46873Y88294D01*
X47130Y87672D01*
Y87335D01*
Y-54134D01*
Y-54404D01*
X47025Y-54933D01*
X46818Y-55432D01*
X46518Y-55881D01*
X46152Y-56248D01*
X-46152D01*
X-46518Y-55881D01*
X-46818Y-55432D01*
X-47025Y-54933D01*
X-47130Y-54404D01*
Y-54134D01*
Y-10170D01*
X-46668Y-9978D01*
X-43038Y-13609D01*
X-42439Y-14009D01*
X-41732Y-14150D01*
X-41026Y-14009D01*
X-40427Y-13609D01*
X-40026Y-13010D01*
X-39886Y-12303D01*
X-40026Y-11597D01*
X-40427Y-10998D01*
X-44020Y-7404D01*
Y8760D01*
X-44160Y9466D01*
X-44561Y10065D01*
X-45160Y10466D01*
X-45866Y10606D01*
X-46573Y10466D01*
X-46689Y10388D01*
X-47130Y10624D01*
Y44880D01*
X14290D01*
X14536Y44929D01*
X14682Y45027D01*
X42618D01*
X42864Y45076D01*
X43072Y45215D01*
X43211Y45423D01*
X43260Y45669D01*
Y82530D01*
X43211Y82776D01*
X43072Y82984D01*
X42864Y83123D01*
X42618Y83172D01*
X-36375D01*
X-36402Y83661D01*
X-36402D01*
Y86130D01*
X-41339D01*
Y87130D01*
X-36402D01*
Y88674D01*
X-36048Y89028D01*
X36772Y89027D01*
D02*
G37*
%LPC*%
G36*
X34063Y42497D02*
Y39870D01*
X36690D01*
X36647Y40196D01*
X36328Y40966D01*
X35820Y41628D01*
X35159Y42135D01*
X34389Y42454D01*
X34063Y42497D01*
D02*
G37*
G36*
X33063D02*
X32737Y42454D01*
X31967Y42135D01*
X31305Y41628D01*
X30798Y40966D01*
X30479Y40196D01*
X30436Y39870D01*
X33063D01*
Y42497D01*
D02*
G37*
G36*
X19783Y42189D02*
X19054Y42093D01*
X18374Y41812D01*
X17790Y41364D01*
X17342Y40780D01*
X17060Y40100D01*
X16964Y39370D01*
X17060Y38640D01*
X17342Y37960D01*
X17790Y37376D01*
X18374Y36928D01*
X19054Y36647D01*
X19783Y36551D01*
X20513Y36647D01*
X21193Y36928D01*
X21777Y37376D01*
X22225Y37960D01*
X22507Y38640D01*
X22603Y39370D01*
X22507Y40100D01*
X22225Y40780D01*
X21777Y41364D01*
X21193Y41812D01*
X20513Y42093D01*
X19783Y42189D01*
D02*
G37*
G36*
X36690Y38870D02*
X34063D01*
Y36243D01*
X34389Y36286D01*
X35159Y36605D01*
X35820Y37113D01*
X36328Y37774D01*
X36647Y38544D01*
X36690Y38870D01*
D02*
G37*
G36*
X33063D02*
X30436D01*
X30479Y38544D01*
X30798Y37774D01*
X31305Y37113D01*
X31967Y36605D01*
X32737Y36286D01*
X33063Y36243D01*
Y38870D01*
D02*
G37*
G36*
X-27898Y22160D02*
X-28605Y22019D01*
X-29204Y21619D01*
X-29604Y21020D01*
X-29744Y20313D01*
X-29683Y20004D01*
X-31840Y17847D01*
X-32067Y17508D01*
X-32146Y17109D01*
X-32146Y17109D01*
Y6901D01*
X-38462Y585D01*
X-38771Y646D01*
X-39478Y506D01*
X-40077Y105D01*
X-40477Y-494D01*
X-40618Y-1200D01*
X-40477Y-1907D01*
X-40077Y-2506D01*
X-39478Y-2906D01*
X-38771Y-3047D01*
X-38065Y-2906D01*
X-37465Y-2506D01*
X-37065Y-1907D01*
X-36925Y-1200D01*
X-36986Y-891D01*
X-30364Y5731D01*
X-30364Y5731D01*
X-30138Y6069D01*
X-30059Y6469D01*
Y16677D01*
X-28207Y18529D01*
X-27898Y18467D01*
X-27191Y18608D01*
X-26592Y19008D01*
X-26192Y19607D01*
X-26052Y20313D01*
X-26192Y21020D01*
X-26592Y21619D01*
X-27191Y22019D01*
X-27898Y22160D01*
D02*
G37*
G36*
X-28179Y-24177D02*
X-28179Y-24177D01*
X-37090D01*
X-37101Y-24180D01*
X-37113Y-24178D01*
X-37753Y-24201D01*
X-37863Y-24227D01*
X-37975Y-24249D01*
X-37985Y-24256D01*
X-37996Y-24258D01*
X-38089Y-24325D01*
X-38184Y-24388D01*
X-40217Y-26422D01*
X-40356Y-26630D01*
X-40405Y-26876D01*
X-40405Y-26876D01*
Y-28146D01*
X-40621Y-28469D01*
X-40762Y-29176D01*
X-40621Y-29883D01*
X-40221Y-30482D01*
X-39622Y-30882D01*
X-38916Y-31023D01*
X-38209Y-30882D01*
X-37610Y-30482D01*
X-37401Y-30170D01*
X-33630D01*
X-33312Y-30556D01*
X-33343Y-30709D01*
X-33202Y-31415D01*
X-32802Y-32014D01*
X-32203Y-32415D01*
X-31496Y-32555D01*
X-31187Y-32494D01*
X-30423Y-33258D01*
X-30084Y-33484D01*
X-29685Y-33563D01*
X-29685Y-33563D01*
X-20413D01*
X-20413Y-33563D01*
X-20014Y-33484D01*
X-19675Y-33258D01*
X-18715Y-32297D01*
X-18406Y-32358D01*
X-17699Y-32218D01*
X-17100Y-31817D01*
X-16700Y-31218D01*
X-16559Y-30512D01*
X-16700Y-29805D01*
X-17100Y-29206D01*
X-17699Y-28806D01*
X-18406Y-28665D01*
X-19112Y-28806D01*
X-19711Y-29206D01*
X-20111Y-29805D01*
X-20252Y-30512D01*
X-20190Y-30821D01*
X-20846Y-31476D01*
X-29253D01*
X-29711Y-31018D01*
X-29650Y-30709D01*
X-29651Y-30703D01*
X-29303Y-30289D01*
X-28920Y-30302D01*
X-28832Y-30434D01*
X-28233Y-30834D01*
X-27526Y-30975D01*
X-26819Y-30834D01*
X-26220Y-30434D01*
X-25820Y-29835D01*
X-25809Y-29778D01*
X-25531Y-29501D01*
X-25392Y-29292D01*
X-25343Y-29047D01*
X-25343Y-29047D01*
Y-27013D01*
X-25392Y-26767D01*
X-25531Y-26559D01*
X-25531Y-26559D01*
X-27725Y-24365D01*
X-27933Y-24226D01*
X-28179Y-24177D01*
D02*
G37*
G36*
X-41831Y-41559D02*
X-42537Y-41700D01*
X-43136Y-42100D01*
X-43537Y-42699D01*
X-43677Y-43406D01*
X-43537Y-44112D01*
X-43136Y-44711D01*
X-42537Y-45112D01*
X-41831Y-45252D01*
X-41522Y-45191D01*
X-40600Y-46112D01*
X-40262Y-46338D01*
X-39862Y-46418D01*
X-39862Y-46418D01*
X-18410D01*
X-18235Y-46680D01*
X-17636Y-47080D01*
X-16929Y-47221D01*
X-16222Y-47080D01*
X-15623Y-46680D01*
X-15223Y-46081D01*
X-15083Y-45374D01*
X-15223Y-44667D01*
X-15623Y-44068D01*
X-16222Y-43668D01*
X-16929Y-43527D01*
X-17636Y-43668D01*
X-18235Y-44068D01*
X-18410Y-44330D01*
X-39430D01*
X-40046Y-43715D01*
X-39984Y-43406D01*
X-40125Y-42699D01*
X-40525Y-42100D01*
X-41124Y-41700D01*
X-41831Y-41559D01*
D02*
G37*
G36*
X42815Y35610D02*
X10531D01*
X10224Y35549D01*
X9964Y35375D01*
X9790Y35114D01*
X9729Y34807D01*
Y-51807D01*
X9790Y-52114D01*
X9964Y-52375D01*
X10224Y-52549D01*
X10531Y-52610D01*
X42815D01*
X43122Y-52549D01*
X43383Y-52375D01*
X43557Y-52114D01*
X43618Y-51807D01*
Y34807D01*
X43557Y35114D01*
X43383Y35375D01*
X43122Y35549D01*
X42815Y35610D01*
D02*
G37*
%LPD*%
G36*
X-25985Y-27013D02*
Y-29047D01*
X-26466Y-29528D01*
X-30107D01*
X-30190Y-29403D01*
X-30789Y-29003D01*
X-31496Y-28862D01*
X-32203Y-29003D01*
X-32802Y-29403D01*
X-32885Y-29528D01*
X-38642D01*
X-38666Y-29504D01*
X-39192D01*
X-39763Y-28932D01*
Y-26876D01*
X-37730Y-24843D01*
X-37090Y-24820D01*
X-28179D01*
X-25985Y-27013D01*
D02*
G37*
D23*
X-41339Y86630D02*
D03*
X41339D02*
D03*
D54*
X-31496Y-30709D02*
X-29685Y-32520D01*
X-20413D01*
X-18406Y-30512D01*
X-31102Y17109D02*
X-27898Y20313D01*
X-31102Y6469D02*
Y17109D01*
X-38771Y-1200D02*
X-31102Y6469D01*
X-39862Y-45374D02*
X-16929D01*
X-41831Y-43406D02*
X-39862Y-45374D01*
D58*
X-45866Y-8169D02*
X-41732Y-12303D01*
X-45866Y-8169D02*
Y8760D01*
D59*
X19783Y39370D02*
D03*
X33563D02*
D03*
D60*
X-8224Y43679D02*
D03*
X-7554Y-5397D02*
D03*
X-2080Y-23456D02*
D03*
X-21214Y-17562D02*
D03*
X-16240Y-18110D02*
D03*
X-388Y7619D02*
D03*
X-2303Y-43503D02*
D03*
X42520Y42618D02*
D03*
X-36013Y-35197D02*
D03*
X-23720Y-30315D02*
D03*
X-26870Y8268D02*
D03*
X-17618Y8071D02*
D03*
X-17717Y-492D02*
D03*
X-26870Y-591D02*
D03*
X-45866Y8760D02*
D03*
X-41732Y-12303D02*
D03*
X-31496Y-30709D02*
D03*
X-41831Y-43406D02*
D03*
X-16929Y-45374D02*
D03*
X-37439Y-26715D02*
D03*
X-38916Y-29176D02*
D03*
X-27526Y-29128D02*
D03*
X-29002Y-26668D02*
D03*
X-18406Y-30512D02*
D03*
X-33169Y-55134D02*
D03*
X-39429Y-39567D02*
D03*
X-31791Y-16240D02*
D03*
X-29539Y-40858D02*
D03*
X-38771Y-1200D02*
D03*
X-27898Y20313D02*
D03*
X-38858Y2772D02*
D03*
X-42770Y8909D02*
D03*
X-37768Y17726D02*
D03*
X-41882Y24795D02*
D03*
X-26397Y37463D02*
D03*
X-16142Y31693D02*
D03*
Y34646D02*
D03*
Y37598D02*
D03*
Y40551D02*
D03*
Y43504D02*
D03*
X-23254Y37550D02*
D03*
Y40503D02*
D03*
Y43455D02*
D03*
X-32407Y27215D02*
D03*
X-27916Y28766D02*
D03*
X-26305Y33219D02*
D03*
X-11097Y-18095D02*
D03*
X1107Y-8252D02*
D03*
X-1245Y12807D02*
D03*
X-14261Y24063D02*
D03*
X3076Y29937D02*
D03*
M02*
