G04*
G04 #@! TF.GenerationSoftware,Altium Limited,Altium Designer,20.2.5 (213)*
G04*
G04 Layer_Color=8388736*
%FSLAX25Y25*%
%MOIN*%
G70*
G04*
G04 #@! TF.SameCoordinates,C660A1F6-99E0-4939-AC29-5E4AD158EB90*
G04*
G04*
G04 #@! TF.FilePolarity,Negative*
G04*
G01*
G75*
%ADD33R,0.02965X0.02572*%
%ADD34R,0.02769X0.02178*%
%ADD35R,0.02769X0.01981*%
%ADD36R,0.03556X0.07099*%
%ADD37R,0.04737X0.03556*%
%ADD38R,0.01784X0.03162*%
%ADD39R,0.03162X0.01784*%
%ADD40R,0.01587X0.02375*%
%ADD41R,0.02375X0.01587*%
%ADD42R,0.15367X0.15367*%
%ADD43R,0.04343X0.02375*%
%ADD44R,0.08674X0.04737*%
%ADD45R,0.03162X0.03556*%
%ADD46R,0.03556X0.03162*%
%ADD47R,0.04737X0.02769*%
%ADD48R,0.02769X0.04737*%
%ADD49R,0.04343X0.03162*%
%ADD50R,0.01509X0.02572*%
%ADD51R,0.02965X0.02572*%
%ADD52R,0.08674X0.04737*%
%ADD53C,0.05131*%
D33*
X-41919Y19865D02*
D03*
X-37785D02*
D03*
Y22818D02*
D03*
X-41919D02*
D03*
D34*
X-39567Y-37697D02*
D03*
Y-33760D02*
D03*
X-32480D02*
D03*
D35*
Y-37697D02*
D03*
D36*
X-36024Y-35728D02*
D03*
X2697Y-39370D02*
D03*
X-2303D02*
D03*
X-7303D02*
D03*
X-12303D02*
D03*
D37*
X-9129Y22260D02*
D03*
Y29740D02*
D03*
X320D02*
D03*
Y26000D02*
D03*
Y22260D02*
D03*
D38*
X-21752Y-33456D02*
D03*
X-23720D02*
D03*
X-25689D02*
D03*
X-27657D02*
D03*
Y-38456D02*
D03*
X-25689D02*
D03*
X-23720D02*
D03*
X-21752D02*
D03*
D39*
X-28189Y-35956D02*
D03*
X-21220D02*
D03*
D40*
X-29208Y13401D02*
D03*
X-27633D02*
D03*
X-26058D02*
D03*
X-24483D02*
D03*
X-22908D02*
D03*
X-21334D02*
D03*
X-19759D02*
D03*
X-18184D02*
D03*
X-16609D02*
D03*
X-15034D02*
D03*
X-16609Y-5496D02*
D03*
X-18184D02*
D03*
X-19759D02*
D03*
X-21334D02*
D03*
X-22908D02*
D03*
X-24483D02*
D03*
X-26058D02*
D03*
X-27633D02*
D03*
X-29208D02*
D03*
X-15034D02*
D03*
D41*
X-12672Y11039D02*
D03*
Y9465D02*
D03*
Y7890D02*
D03*
Y6315D02*
D03*
Y4740D02*
D03*
Y3165D02*
D03*
Y1591D02*
D03*
Y16D02*
D03*
Y-1559D02*
D03*
Y-3134D02*
D03*
X-31570Y3165D02*
D03*
Y4740D02*
D03*
Y6315D02*
D03*
Y11039D02*
D03*
Y9465D02*
D03*
Y7890D02*
D03*
Y-3134D02*
D03*
Y-1559D02*
D03*
Y16D02*
D03*
Y1591D02*
D03*
D42*
X-22121Y3953D02*
D03*
D43*
X-11885Y36827D02*
D03*
Y39386D02*
D03*
Y41945D02*
D03*
X-3223D02*
D03*
Y39386D02*
D03*
Y36827D02*
D03*
D44*
X41339Y86630D02*
D03*
X-41339D02*
D03*
D45*
X-3617Y-1953D02*
D03*
X-7554D02*
D03*
X-2387Y3165D02*
D03*
X-6324D02*
D03*
X-38780Y-23240D02*
D03*
X-34843D02*
D03*
X-30709Y-22638D02*
D03*
X-26772D02*
D03*
X-38780Y-53937D02*
D03*
X-42717D02*
D03*
X-6594Y-45965D02*
D03*
X-2657D02*
D03*
X-23536Y-43122D02*
D03*
X-27473D02*
D03*
X-34244Y-42340D02*
D03*
X-38181D02*
D03*
X-23647Y20142D02*
D03*
X-19710D02*
D03*
X-6373Y7890D02*
D03*
X-2436D02*
D03*
X-35630Y8858D02*
D03*
X-39567D02*
D03*
X-38005Y15189D02*
D03*
X-41942D02*
D03*
X-37993Y27370D02*
D03*
X-41930D02*
D03*
X-23647Y33219D02*
D03*
X-19710D02*
D03*
X-18231Y-21143D02*
D03*
X-14294D02*
D03*
D46*
X1107Y-15339D02*
D03*
Y-11402D02*
D03*
X-19710Y28298D02*
D03*
Y24361D02*
D03*
X-42236Y-5131D02*
D03*
Y-9068D02*
D03*
X-19710Y42077D02*
D03*
Y38140D02*
D03*
X1107Y-5890D02*
D03*
Y-1953D02*
D03*
X1107Y-23456D02*
D03*
Y-19519D02*
D03*
X1944Y7102D02*
D03*
Y3165D02*
D03*
X-14247Y21275D02*
D03*
Y17338D02*
D03*
X-27953Y22343D02*
D03*
Y26280D02*
D03*
X5438Y26000D02*
D03*
Y29937D02*
D03*
X-41043Y2756D02*
D03*
Y-1181D02*
D03*
X-36571Y2803D02*
D03*
Y-1134D02*
D03*
X-35895Y-19049D02*
D03*
Y-15112D02*
D03*
X-32425Y20313D02*
D03*
Y24250D02*
D03*
X-31471Y-9138D02*
D03*
Y-13075D02*
D03*
X-11097Y-11402D02*
D03*
Y-15339D02*
D03*
X-16215Y-11795D02*
D03*
Y-15732D02*
D03*
X-21217Y-11193D02*
D03*
Y-15130D02*
D03*
X4257Y37417D02*
D03*
Y41354D02*
D03*
X-22515Y-24492D02*
D03*
Y-20555D02*
D03*
D47*
X-5192Y-18488D02*
D03*
Y-14551D02*
D03*
Y-6677D02*
D03*
Y-10614D02*
D03*
D48*
Y15764D02*
D03*
X-1255D02*
D03*
X-9129D02*
D03*
D49*
X-37330Y-11037D02*
D03*
Y-5131D02*
D03*
D50*
X3167Y16748D02*
D03*
X4560D02*
D03*
D51*
X3863Y13795D02*
D03*
D52*
X-19710Y51428D02*
D03*
Y72688D02*
D03*
D53*
X19783Y39370D02*
D03*
X33563D02*
D03*
M02*
