G04*
G04 #@! TF.GenerationSoftware,Altium Limited,Altium Designer,20.2.5 (213)*
G04*
G04 Layer_Physical_Order=1*
G04 Layer_Color=255*
%FSLAX25Y25*%
%MOIN*%
G70*
G04*
G04 #@! TF.SameCoordinates,C660A1F6-99E0-4939-AC29-5E4AD158EB90*
G04*
G04*
G04 #@! TF.FilePolarity,Positive*
G04*
G01*
G75*
%ADD10C,0.01000*%
%ADD12R,0.02165X0.01772*%
%ADD13R,0.01968X0.01378*%
%ADD14R,0.01968X0.01181*%
%ADD15R,0.02756X0.06299*%
%ADD16R,0.03937X0.02756*%
%ADD17R,0.00984X0.02362*%
%ADD18R,0.02362X0.00984*%
%ADD19R,0.00787X0.01575*%
%ADD20R,0.01575X0.00787*%
%ADD21R,0.14567X0.14567*%
%ADD22R,0.03543X0.01575*%
%ADD23R,0.07874X0.03937*%
%ADD24R,0.02362X0.02756*%
%ADD25R,0.02756X0.02362*%
%ADD26R,0.03937X0.01968*%
%ADD27R,0.01968X0.03937*%
%ADD28R,0.00787X0.01968*%
%ADD29R,0.03543X0.02362*%
%ADD30R,0.00709X0.01772*%
%ADD31R,0.02165X0.01772*%
%ADD32R,0.07874X0.03937*%
%ADD54C,0.00787*%
%ADD55C,0.00630*%
%ADD56C,0.01575*%
%ADD57C,0.01968*%
%ADD58C,0.02362*%
%ADD59C,0.04331*%
%ADD60C,0.02362*%
G36*
X-14533Y44568D02*
X-14198Y43760D01*
Y43362D01*
X-14286D01*
Y40527D01*
X-14198D01*
Y38244D01*
X-14286D01*
Y35409D01*
X-14198D01*
Y31841D01*
Y31411D01*
X-14528Y30615D01*
X-15137Y30005D01*
X-15933Y29676D01*
X-17702D01*
Y30109D01*
X-17864D01*
Y33219D01*
Y36329D01*
X-17702D01*
Y39951D01*
X-19532D01*
X-19710Y39987D01*
X-19889Y39951D01*
X-21718D01*
Y36329D01*
X-21557D01*
Y33219D01*
Y30109D01*
X-21718D01*
Y29676D01*
X-26314D01*
X-27123Y30011D01*
X-27742Y30630D01*
X-28076Y31438D01*
Y31876D01*
Y43322D01*
Y43760D01*
X-27742Y44568D01*
X-27430Y44880D01*
X-21557D01*
Y43888D01*
X-21718D01*
Y40266D01*
X-19889D01*
X-19710Y40231D01*
X-19532Y40266D01*
X-17702D01*
Y43888D01*
X-17864D01*
Y44880D01*
X-14845D01*
X-14533Y44568D01*
D02*
G37*
G36*
X39628Y38053D02*
X40097Y37740D01*
X40650Y37630D01*
X43898D01*
X44451Y37740D01*
X44919Y38053D01*
X46668Y39802D01*
X47130Y39610D01*
Y-54134D01*
Y-54404D01*
X47025Y-54933D01*
X46818Y-55432D01*
X46518Y-55881D01*
X46152Y-56248D01*
X-31180D01*
X-31445Y-55747D01*
X-31323Y-55134D01*
X-31463Y-54427D01*
X-31864Y-53828D01*
X-32463Y-53428D01*
X-33169Y-53287D01*
X-33876Y-53428D01*
X-34475Y-53828D01*
X-34875Y-54427D01*
X-35016Y-55134D01*
X-34954Y-55443D01*
X-35759Y-56248D01*
X-36594D01*
X-36968Y-55945D01*
Y-51929D01*
X-39228D01*
X-40461Y-50697D01*
X-40773Y-50488D01*
X-41142Y-50415D01*
X-41924D01*
X-43722Y-48617D01*
Y-44735D01*
X-43222Y-44584D01*
X-43136Y-44711D01*
X-42537Y-45112D01*
X-41831Y-45252D01*
X-41124Y-45112D01*
X-40525Y-44711D01*
X-40412Y-44542D01*
X-39992Y-44348D01*
X-36425D01*
Y-44719D01*
X-34744D01*
Y-42340D01*
X-34244D01*
Y-41840D01*
X-32063D01*
Y-39963D01*
X-33462D01*
X-33725Y-39463D01*
X-33605Y-39287D01*
X-32980D01*
Y-37697D01*
Y-36106D01*
X-34016D01*
Y-35079D01*
X-30866D01*
Y-33622D01*
X-30758Y-33514D01*
X-30758Y-33514D01*
X-30532Y-33175D01*
X-30452Y-32776D01*
X-30452Y-32776D01*
Y-32189D01*
X-30190Y-32014D01*
X-29790Y-31415D01*
X-29650Y-30709D01*
X-29790Y-30002D01*
X-30190Y-29403D01*
X-30452Y-29228D01*
Y-24646D01*
X-28953D01*
Y-25016D01*
X-27272D01*
Y-22638D01*
X-26272D01*
Y-25016D01*
X-24591D01*
X-24522Y-25488D01*
Y-26303D01*
X-20507D01*
Y-24731D01*
X-20197Y-24669D01*
X-19858Y-24443D01*
X-18566Y-23150D01*
X-16420D01*
X-16420Y-23151D01*
X-16105D01*
Y-23151D01*
X-15920Y-23150D01*
X-12483D01*
Y-21894D01*
X-10735D01*
X-10735Y-21894D01*
X-10336Y-21815D01*
X-9997Y-21588D01*
X-8290Y-19881D01*
X-7790Y-20088D01*
Y-20102D01*
X-2593D01*
Y-16874D01*
X-7790D01*
Y-17445D01*
X-8373D01*
X-8373Y-17445D01*
X-8751Y-17520D01*
X-8776Y-17522D01*
X-8778Y-17521D01*
X-9089Y-17150D01*
Y-13708D01*
X-8609Y-13481D01*
X-7790Y-14300D01*
Y-16165D01*
X-2593D01*
Y-12937D01*
X-6268D01*
X-6429Y-12728D01*
X-6183Y-12228D01*
X-2593D01*
Y-9000D01*
X-5900D01*
X-5956Y-8955D01*
X-6017Y-8823D01*
X-5696Y-8323D01*
X-5192D01*
X-5033Y-8291D01*
X-2593D01*
Y-5063D01*
X-5033D01*
X-5192Y-5032D01*
X-5494D01*
X-5874Y-4652D01*
X-6002Y-4461D01*
X-5743Y-3961D01*
X-5428D01*
Y-3961D01*
X-1806D01*
Y-2916D01*
X-900D01*
Y-3764D01*
X-900Y-3764D01*
Y-4079D01*
X-900D01*
X-900Y-4264D01*
Y-7701D01*
X-739D01*
Y-8252D01*
X-599Y-8959D01*
X-510Y-9091D01*
X-778Y-9591D01*
X-900D01*
Y-13028D01*
X-900Y-13528D01*
X-900Y-13713D01*
Y-17150D01*
X144D01*
Y-17708D01*
X-900D01*
Y-21110D01*
X-900Y-21330D01*
X-1285Y-21610D01*
X-2080D01*
X-2787Y-21750D01*
X-3386Y-22151D01*
X-3786Y-22750D01*
X-3927Y-23456D01*
X-3786Y-24163D01*
X-3386Y-24762D01*
X-2787Y-25162D01*
X-2080Y-25303D01*
X1107D01*
X1286Y-25267D01*
X3115D01*
Y-21830D01*
X3115Y-21330D01*
X3115Y-21145D01*
Y-17708D01*
X2071D01*
Y-17150D01*
X3115D01*
Y-13713D01*
X3115Y-13213D01*
X3115Y-13028D01*
Y-10756D01*
X4151Y-9721D01*
X4360Y-9408D01*
X4433Y-9040D01*
Y-420D01*
X4360Y-51D01*
X4151Y261D01*
X3520Y892D01*
X3711Y1354D01*
X3952D01*
Y4976D01*
X3952D01*
Y5291D01*
X3952D01*
Y8913D01*
X1906D01*
X1747Y8945D01*
X887D01*
X318Y9325D01*
X-388Y9465D01*
X-625Y9660D01*
Y9898D01*
X-4192D01*
Y10268D01*
X-5873D01*
Y7890D01*
X-6373D01*
Y7390D01*
X-8554D01*
Y5703D01*
X-11255D01*
Y6496D01*
X-10885D01*
Y7390D01*
X-12672D01*
Y8390D01*
X-10885D01*
Y8947D01*
X-10259Y9573D01*
X-10050Y9886D01*
X-9976Y10254D01*
Y10640D01*
X-9005Y11611D01*
X-7396D01*
X-7028Y11685D01*
X-6715Y11893D01*
X-5443Y13165D01*
X-3578D01*
Y17729D01*
X-3078Y18002D01*
X-2869Y17868D01*
Y15923D01*
X-2901Y15764D01*
Y13589D01*
X-2951Y13513D01*
X-3092Y12807D01*
X-2951Y12100D01*
X-2551Y11501D01*
X-1952Y11101D01*
X-1245Y10960D01*
X-539Y11101D01*
X60Y11501D01*
X461Y12100D01*
X601Y12807D01*
X461Y13513D01*
X391Y13618D01*
Y15764D01*
X359Y15923D01*
Y17355D01*
X859Y17562D01*
X1275Y17147D01*
X1347Y16785D01*
X1660Y16317D01*
X1863Y16181D01*
X1781Y15681D01*
X1781Y15681D01*
Y14295D01*
X3863D01*
X5946D01*
Y15681D01*
X5544D01*
Y16449D01*
X5604Y16748D01*
X5588Y16827D01*
Y18626D01*
X5509Y19025D01*
X5282Y19364D01*
X5282Y19364D01*
X2918Y21728D01*
Y24555D01*
X3430D01*
Y24189D01*
X7446D01*
Y27811D01*
X7446Y27811D01*
Y28126D01*
X7446D01*
X7446Y28311D01*
Y31748D01*
X5616D01*
X5438Y31783D01*
X517D01*
X338Y31748D01*
X-2278D01*
Y27445D01*
X-2985D01*
Y31144D01*
X-3095Y31697D01*
X-3250Y31929D01*
X-2983Y32429D01*
X517D01*
X1070Y32539D01*
X1539Y32852D01*
X4293Y35606D01*
X6265D01*
Y35972D01*
X9888D01*
X10085Y36011D01*
X10224Y35549D01*
X9964Y35375D01*
X9790Y35114D01*
X9729Y34807D01*
Y-51807D01*
X9790Y-52114D01*
X9964Y-52375D01*
X10224Y-52549D01*
X10531Y-52610D01*
X42815D01*
X43122Y-52549D01*
X43383Y-52375D01*
X43557Y-52114D01*
X43618Y-51807D01*
Y34807D01*
X43557Y35114D01*
X43383Y35375D01*
X43122Y35549D01*
X42815Y35610D01*
X10695D01*
X10531Y35610D01*
X10441Y36082D01*
X10559Y36161D01*
X10910Y36395D01*
X12455Y37941D01*
X17357D01*
X17790Y37376D01*
X18374Y36928D01*
X19054Y36647D01*
X19783Y36551D01*
X20513Y36647D01*
X21193Y36928D01*
X21777Y37376D01*
X22225Y37960D01*
X22507Y38640D01*
X22603Y39370D01*
X22507Y40100D01*
X22225Y40780D01*
X21777Y41364D01*
X21193Y41812D01*
X20616Y42051D01*
X20715Y42551D01*
X32631D01*
X32731Y42051D01*
X32153Y41812D01*
X31569Y41364D01*
X31121Y40780D01*
X30840Y40100D01*
X30744Y39370D01*
X30840Y38640D01*
X31121Y37960D01*
X31569Y37376D01*
X32153Y36928D01*
X32833Y36647D01*
X33563Y36551D01*
X34293Y36647D01*
X34973Y36928D01*
X35557Y37376D01*
X36005Y37960D01*
X36286Y38640D01*
X36382Y39370D01*
X36286Y40100D01*
X36005Y40780D01*
X35557Y41364D01*
X34973Y41812D01*
X34395Y42051D01*
X34495Y42551D01*
X35130D01*
X39628Y38053D01*
D02*
G37*
G36*
X-28515Y44380D02*
X-28670Y44006D01*
X-28719Y43760D01*
Y31438D01*
X-28670Y31192D01*
X-28481Y30737D01*
X-28623Y30472D01*
X-29222Y30071D01*
X-29622Y29472D01*
X-29763Y28766D01*
Y28091D01*
X-29961D01*
Y26696D01*
X-30461Y26449D01*
X-30561Y26526D01*
Y27215D01*
X-30701Y27922D01*
X-31102Y28521D01*
X-31701Y28921D01*
X-32407Y29062D01*
X-33114Y28921D01*
X-33713Y28521D01*
X-34113Y27922D01*
X-34254Y27215D01*
Y26061D01*
X-34433D01*
Y24913D01*
X-34933Y24706D01*
X-35663Y25436D01*
X-35976Y25645D01*
X-36182Y25686D01*
Y29377D01*
X-39804D01*
X-39804Y29378D01*
X-40119D01*
Y29378D01*
X-40304Y29377D01*
X-43742D01*
Y27548D01*
X-43777Y27370D01*
Y24843D01*
X-43636Y24136D01*
X-43631Y24128D01*
Y21302D01*
Y18350D01*
X-42882D01*
Y17197D01*
X-43753D01*
Y13181D01*
X-41494D01*
X-40498Y12185D01*
X-40185Y11976D01*
X-39816Y11903D01*
X-34587D01*
X-34218Y11976D01*
X-33906Y12185D01*
X-31920Y14170D01*
X-30601D01*
Y13902D01*
X-29208D01*
Y12901D01*
X-30601D01*
Y12063D01*
X-32987D01*
Y11329D01*
X-33449Y11236D01*
Y11236D01*
X-35130D01*
Y8858D01*
X-36130D01*
Y11236D01*
X-37811D01*
Y10866D01*
X-41378D01*
Y10755D01*
X-42770D01*
X-43477Y10615D01*
X-44076Y10214D01*
X-44476Y9615D01*
X-44616Y8909D01*
X-44476Y8202D01*
X-44193Y7778D01*
X-44421Y7278D01*
X-44838D01*
X-45207Y7205D01*
X-45519Y6996D01*
X-46630Y5885D01*
X-46697Y5888D01*
X-47130Y6044D01*
Y44880D01*
X-28849D01*
X-28515Y44380D01*
D02*
G37*
G36*
X-31070Y-4528D02*
X-30231D01*
Y-6732D01*
X-30826Y-7327D01*
X-33479D01*
Y-10949D01*
X-33479D01*
Y-11264D01*
X-33479D01*
Y-12447D01*
X-33517Y-12931D01*
X-34464D01*
X-34929Y-12848D01*
Y-9226D01*
X-38043D01*
X-38853Y-8416D01*
X-38853Y-8416D01*
X-38939Y-8330D01*
X-39277Y-8104D01*
X-39677Y-8024D01*
X-39677Y-8024D01*
X-40228D01*
Y-7257D01*
X-40228D01*
Y-6953D01*
X-39728Y-6942D01*
X-34929D01*
Y-5340D01*
X-33819Y-4231D01*
X-33357Y-4422D01*
Y-4528D01*
X-32070D01*
Y-3134D01*
X-31070D01*
Y-4528D01*
D02*
G37*
G36*
X-23595Y-9785D02*
Y-10693D01*
X-21217D01*
Y-11693D01*
X-23595D01*
Y-13374D01*
X-23225D01*
Y-16941D01*
X-23061D01*
Y-17562D01*
X-22998Y-17874D01*
X-23405Y-18374D01*
X-24893D01*
Y-20260D01*
X-26405D01*
X-26685Y-19789D01*
X-26683Y-19760D01*
X-26609Y-19385D01*
Y-10157D01*
X-26279Y-9827D01*
X-24712D01*
X-24712Y-9827D01*
X-24313Y-9748D01*
X-24095Y-9602D01*
X-23595Y-9785D01*
D02*
G37*
G36*
X-40228Y-10879D02*
X-39732Y-10890D01*
Y-12848D01*
X-38739D01*
X-38273Y-12931D01*
Y-14613D01*
X-35895D01*
Y-15612D01*
X-38273D01*
Y-17293D01*
X-37903D01*
Y-20861D01*
X-38280Y-20862D01*
Y-23240D01*
Y-25618D01*
X-36599D01*
Y-25248D01*
X-35788D01*
Y-28041D01*
X-39714Y-31968D01*
X-39941Y-32307D01*
X-39967Y-32441D01*
X-41181D01*
Y-33603D01*
X-42372Y-34793D01*
X-42598Y-35132D01*
X-42678Y-35531D01*
X-42678Y-35532D01*
Y-41793D01*
X-43136Y-42100D01*
X-43222Y-42227D01*
X-43722Y-42076D01*
Y-10879D01*
X-40228D01*
Y-10879D01*
D02*
G37*
%LPC*%
G36*
X5946Y13295D02*
X4363D01*
Y11909D01*
X5946D01*
Y13295D01*
D02*
G37*
G36*
X3363D02*
X1781D01*
Y11909D01*
X3363D01*
Y13295D01*
D02*
G37*
G36*
X-6873Y10268D02*
X-8554D01*
Y8390D01*
X-6873D01*
Y10268D01*
D02*
G37*
G36*
X-28157Y-31275D02*
X-29150D01*
Y-32956D01*
X-28157D01*
Y-31275D01*
D02*
G37*
G36*
X-4925Y-35221D02*
X-6803D01*
Y-38870D01*
X-4925D01*
Y-35221D01*
D02*
G37*
G36*
X-7803D02*
X-9681D01*
Y-38870D01*
X-7803D01*
Y-35221D01*
D02*
G37*
G36*
X-23720Y-28468D02*
X-24427Y-28609D01*
X-25026Y-29009D01*
X-25426Y-29608D01*
X-25567Y-30315D01*
X-25502Y-30641D01*
X-25821Y-30959D01*
X-26165Y-31275D01*
Y-31275D01*
X-26165Y-31275D01*
X-27158D01*
Y-33456D01*
X-27657D01*
Y-33956D01*
X-29150D01*
Y-34833D01*
X-30000D01*
Y-35602D01*
X-30505Y-36106D01*
X-31980D01*
Y-37697D01*
Y-39287D01*
X-31196D01*
X-31002Y-39787D01*
X-31245Y-40152D01*
X-31386Y-40858D01*
X-31245Y-41565D01*
X-30845Y-42164D01*
X-30246Y-42564D01*
X-29539Y-42705D01*
X-29284Y-42915D01*
Y-45130D01*
X-25717D01*
Y-45500D01*
X-24035D01*
Y-43122D01*
X-23035D01*
Y-45500D01*
X-21354D01*
Y-43078D01*
X-20893Y-42887D01*
X-18714Y-45065D01*
X-18776Y-45374D01*
X-18635Y-46081D01*
X-18235Y-46680D01*
X-17636Y-47080D01*
X-16929Y-47221D01*
X-16620Y-47159D01*
X-13730Y-50049D01*
X-13730Y-50049D01*
X-13392Y-50275D01*
X-12992Y-50355D01*
X-12992Y-50355D01*
X-788D01*
X-787Y-50355D01*
X-388Y-50275D01*
X-49Y-50049D01*
X2411Y-47588D01*
X3435Y-46565D01*
X3435Y-46565D01*
X3661Y-46226D01*
X3740Y-45827D01*
X3740Y-45827D01*
Y-43150D01*
X4705D01*
Y-35591D01*
X689D01*
Y-42025D01*
X669Y-42126D01*
X689Y-42227D01*
Y-43150D01*
X1612D01*
X1653Y-43158D01*
Y-45395D01*
X-384Y-47432D01*
X-847Y-47241D01*
Y-46143D01*
X-811Y-45965D01*
Y-44530D01*
X-597Y-44210D01*
X-457Y-43503D01*
Y-43150D01*
X-295D01*
Y-35591D01*
X-4311D01*
Y-42999D01*
X-4425Y-43159D01*
X-4735Y-43114D01*
X-4925Y-42999D01*
Y-39870D01*
X-7303D01*
X-9681D01*
Y-43520D01*
X-9248D01*
X-8776Y-43587D01*
X-8776Y-44020D01*
Y-45465D01*
X-6594D01*
Y-46465D01*
X-8776D01*
Y-48267D01*
X-12560D01*
X-15144Y-45683D01*
X-15083Y-45374D01*
X-15223Y-44667D01*
X-15623Y-44068D01*
X-16222Y-43668D01*
X-16929Y-43527D01*
X-17238Y-43589D01*
X-20630Y-40197D01*
Y-37078D01*
X-19410D01*
Y-36309D01*
X-18261Y-35162D01*
X-16071Y-37352D01*
X-15732Y-37578D01*
X-15333Y-37658D01*
X-15333Y-37658D01*
X-14311D01*
Y-43150D01*
X-10295D01*
Y-35591D01*
X-13186D01*
X-13287Y-35570D01*
X-13287Y-35570D01*
X-14900D01*
X-17362Y-33109D01*
Y-31993D01*
X-17100Y-31817D01*
X-16700Y-31218D01*
X-16559Y-30512D01*
X-16700Y-29805D01*
X-17100Y-29206D01*
X-17699Y-28806D01*
X-18406Y-28665D01*
X-19112Y-28806D01*
X-19711Y-29206D01*
X-20111Y-29805D01*
X-20252Y-30512D01*
X-20111Y-31218D01*
X-19711Y-31817D01*
X-19449Y-31993D01*
Y-33397D01*
X-20168Y-34116D01*
X-20630Y-33925D01*
Y-31645D01*
X-20764D01*
X-20789Y-31518D01*
X-21016Y-31180D01*
X-21016Y-31180D01*
X-21875Y-30320D01*
X-21874Y-30315D01*
X-22015Y-29608D01*
X-22415Y-29009D01*
X-23014Y-28609D01*
X-23720Y-28468D01*
D02*
G37*
G36*
X-32063Y-42840D02*
X-33744D01*
Y-44719D01*
X-32063D01*
Y-42840D01*
D02*
G37*
G36*
X-39280Y-20862D02*
X-40961D01*
Y-22740D01*
X-39280D01*
Y-20862D01*
D02*
G37*
G36*
Y-23740D02*
X-40961D01*
Y-25618D01*
X-39280D01*
Y-23740D01*
D02*
G37*
%LPD*%
D10*
X4257Y37417D02*
Y41354D01*
X-22515Y-24492D02*
Y-20555D01*
D12*
X-41919Y19865D02*
D03*
X-37785D02*
D03*
Y22818D02*
D03*
X-41919D02*
D03*
D13*
X-39567Y-37697D02*
D03*
Y-33760D02*
D03*
X-32480D02*
D03*
D14*
Y-37697D02*
D03*
D15*
X-36024Y-35728D02*
D03*
X2697Y-39370D02*
D03*
X-2303D02*
D03*
X-7303D02*
D03*
X-12303D02*
D03*
D16*
X-9129Y22260D02*
D03*
Y29740D02*
D03*
X320D02*
D03*
Y26000D02*
D03*
Y22260D02*
D03*
D17*
X-21752Y-33456D02*
D03*
X-23720D02*
D03*
X-25689D02*
D03*
X-27657D02*
D03*
Y-38456D02*
D03*
X-25689D02*
D03*
X-23720D02*
D03*
X-21752D02*
D03*
D18*
X-28189Y-35956D02*
D03*
X-21220D02*
D03*
D19*
X-29208Y13401D02*
D03*
X-27633D02*
D03*
X-26058D02*
D03*
X-24483D02*
D03*
X-22908D02*
D03*
X-21334D02*
D03*
X-19759D02*
D03*
X-18184D02*
D03*
X-16609D02*
D03*
X-15034D02*
D03*
X-16609Y-5496D02*
D03*
X-18184D02*
D03*
X-19759D02*
D03*
X-21334D02*
D03*
X-22908D02*
D03*
X-24483D02*
D03*
X-26058D02*
D03*
X-27633D02*
D03*
X-29208D02*
D03*
X-15034D02*
D03*
D20*
X-12672Y11039D02*
D03*
Y9465D02*
D03*
Y7890D02*
D03*
Y6315D02*
D03*
Y4740D02*
D03*
Y3165D02*
D03*
Y1591D02*
D03*
Y16D02*
D03*
Y-1559D02*
D03*
Y-3134D02*
D03*
X-31570Y3165D02*
D03*
Y4740D02*
D03*
Y6315D02*
D03*
Y11039D02*
D03*
Y9465D02*
D03*
Y7890D02*
D03*
Y-3134D02*
D03*
Y-1559D02*
D03*
Y16D02*
D03*
Y1591D02*
D03*
D21*
X-22121Y3953D02*
D03*
D22*
X-11885Y36827D02*
D03*
Y39386D02*
D03*
Y41945D02*
D03*
X-3223D02*
D03*
Y39386D02*
D03*
Y36827D02*
D03*
D23*
X41339Y86630D02*
D03*
X-41339D02*
D03*
D24*
X-3617Y-1953D02*
D03*
X-7554D02*
D03*
X-2387Y3165D02*
D03*
X-6324D02*
D03*
X-38780Y-23240D02*
D03*
X-34843D02*
D03*
X-30709Y-22638D02*
D03*
X-26772D02*
D03*
X-38780Y-53937D02*
D03*
X-42717D02*
D03*
X-6594Y-45965D02*
D03*
X-2657D02*
D03*
X-23536Y-43122D02*
D03*
X-27473D02*
D03*
X-34244Y-42340D02*
D03*
X-38181D02*
D03*
X-23647Y20142D02*
D03*
X-19710D02*
D03*
X-6373Y7890D02*
D03*
X-2436D02*
D03*
X-35630Y8858D02*
D03*
X-39567D02*
D03*
X-38005Y15189D02*
D03*
X-41942D02*
D03*
X-37993Y27370D02*
D03*
X-41930D02*
D03*
X-23647Y33219D02*
D03*
X-19710D02*
D03*
X-18231Y-21143D02*
D03*
X-14294D02*
D03*
D25*
X1107Y-15339D02*
D03*
Y-11402D02*
D03*
X-19710Y28298D02*
D03*
Y24361D02*
D03*
X-42236Y-5131D02*
D03*
Y-9068D02*
D03*
X-19710Y42077D02*
D03*
Y38140D02*
D03*
X1107Y-5890D02*
D03*
Y-1953D02*
D03*
X1107Y-23456D02*
D03*
Y-19519D02*
D03*
X1944Y7102D02*
D03*
Y3165D02*
D03*
X-14247Y21275D02*
D03*
Y17338D02*
D03*
X-27953Y22343D02*
D03*
Y26280D02*
D03*
X5438Y26000D02*
D03*
Y29937D02*
D03*
X-41043Y2756D02*
D03*
Y-1181D02*
D03*
X-36571Y2803D02*
D03*
Y-1134D02*
D03*
X-35895Y-19049D02*
D03*
Y-15112D02*
D03*
X-32425Y20313D02*
D03*
Y24250D02*
D03*
X-31471Y-9138D02*
D03*
Y-13075D02*
D03*
X-11097Y-11402D02*
D03*
Y-15339D02*
D03*
X-16215Y-11795D02*
D03*
Y-15732D02*
D03*
X-21217Y-11193D02*
D03*
Y-15130D02*
D03*
X4257Y37417D02*
D03*
Y41354D02*
D03*
X-22515Y-24492D02*
D03*
Y-20555D02*
D03*
D26*
X-5192Y-18488D02*
D03*
Y-14551D02*
D03*
Y-6677D02*
D03*
Y-10614D02*
D03*
D27*
Y15764D02*
D03*
X-1255D02*
D03*
X-9129D02*
D03*
D28*
X-36909Y-70866D02*
D03*
X-38484D02*
D03*
D29*
X-37330Y-11037D02*
D03*
Y-5131D02*
D03*
D30*
X3167Y16748D02*
D03*
X4560D02*
D03*
D31*
X3863Y13795D02*
D03*
D32*
X-19710Y51428D02*
D03*
Y72688D02*
D03*
D54*
X-38484Y-72441D02*
G03*
X-35335Y-75590I3150J0D01*
G01*
X38681D02*
G03*
X37106Y-74016I-1575J0D01*
G01*
Y-77165D02*
G03*
X35531Y-75590I-1575J0D01*
G01*
X35531Y-78740D02*
G03*
X37106Y-77165I0J1575D01*
G01*
Y-80315D02*
G03*
X38681Y-78740I0J1575D01*
G01*
Y-85039D02*
G03*
X37106Y-83465I-1575J0D01*
G01*
Y-86614D02*
G03*
X35531Y-85039I-1575J0D01*
G01*
X35531Y-88189D02*
G03*
X37106Y-86614I0J1575D01*
G01*
Y-89764D02*
G03*
X38681Y-88189I0J1575D01*
G01*
X-38484Y-92913D02*
G03*
X-36909Y-94488I1575J0D01*
G01*
Y-91339D02*
G03*
X-35335Y-92913I1575J0D01*
G01*
X38681Y-94488D02*
G03*
X37106Y-92913I-1575J0D01*
G01*
Y-96063D02*
G03*
X35531Y-94488I-1575J0D01*
G01*
X35531Y-97638D02*
G03*
X37106Y-96063I0J1575D01*
G01*
Y-99213D02*
G03*
X38681Y-97638I0J1575D01*
G01*
X-36909D02*
G03*
X-38484Y-99213I0J-1575D01*
G01*
Y-102362D02*
G03*
X-36909Y-103937I1575J0D01*
G01*
X-35335Y-99213D02*
G03*
X-36909Y-100787I0J-1575D01*
G01*
D02*
G03*
X-35335Y-102362I1575J0D01*
G01*
X38681Y-103937D02*
G03*
X37106Y-102362I-1575J0D01*
G01*
Y-105512D02*
G03*
X35531Y-103937I-1575J0D01*
G01*
X35531Y-107087D02*
G03*
X37106Y-105512I0J1575D01*
G01*
Y-108661D02*
G03*
X38681Y-107087I0J1575D01*
G01*
X-36909D02*
G03*
X-38484Y-108661I0J-1575D01*
G01*
Y-111811D02*
G03*
X-36909Y-113386I1575J0D01*
G01*
X-35335Y-108661D02*
G03*
X-36909Y-110236I0J-1575D01*
G01*
D02*
G03*
X-35335Y-111811I1575J0D01*
G01*
X38681Y-113386D02*
G03*
X37106Y-111811I-1575J0D01*
G01*
Y-114961D02*
G03*
X35531Y-113386I-1575J0D01*
G01*
X35531Y-116535D02*
G03*
X37106Y-114961I0J1575D01*
G01*
Y-118110D02*
G03*
X38681Y-116535I0J1575D01*
G01*
X-36909D02*
G03*
X-38484Y-118110I0J-1575D01*
G01*
Y-121260D02*
G03*
X-36909Y-122835I1575J0D01*
G01*
X-35335Y-118110D02*
G03*
X-36909Y-119685I0J-1575D01*
G01*
D02*
G03*
X-35335Y-121260I1575J0D01*
G01*
X38681Y-122835D02*
G03*
X37106Y-121260I-1575J0D01*
G01*
Y-124409D02*
G03*
X35531Y-122835I-1575J0D01*
G01*
X35531Y-125984D02*
G03*
X37106Y-124409I0J1575D01*
G01*
Y-127559D02*
G03*
X38681Y-125984I0J1575D01*
G01*
X-36909D02*
G03*
X-38484Y-127559I0J-1575D01*
G01*
Y-130709D02*
G03*
X-36909Y-132283I1575J0D01*
G01*
X-35335Y-127559D02*
G03*
X-36909Y-129134I0J-1575D01*
G01*
D02*
G03*
X-35335Y-130709I1575J0D01*
G01*
X38681Y-132283D02*
G03*
X37106Y-130709I-1575J0D01*
G01*
Y-133858D02*
G03*
X35531Y-132283I-1575J0D01*
G01*
X35531Y-135433D02*
G03*
X37106Y-133858I0J1575D01*
G01*
Y-137008D02*
G03*
X38681Y-135433I0J1575D01*
G01*
X-36909D02*
G03*
X-38484Y-137008I0J-1575D01*
G01*
Y-140157D02*
G03*
X-36909Y-141732I1575J0D01*
G01*
X-35335Y-137008D02*
G03*
X-36909Y-138583I0J-1575D01*
G01*
D02*
G03*
X-35335Y-140157I1575J0D01*
G01*
X38681Y-141732D02*
G03*
X37106Y-140157I-1575J0D01*
G01*
Y-143307D02*
G03*
X35531Y-141732I-1575J0D01*
G01*
X35531Y-144882D02*
G03*
X37106Y-143307I0J1575D01*
G01*
Y-146457D02*
G03*
X38681Y-144882I0J1575D01*
G01*
X-36909D02*
G03*
X-38484Y-146457I0J-1575D01*
G01*
Y-149606D02*
G03*
X-36909Y-151181I1575J0D01*
G01*
X-35335Y-146457D02*
G03*
X-36909Y-148031I0J-1575D01*
G01*
D02*
G03*
X-35335Y-149606I1575J0D01*
G01*
X38681Y-151181D02*
G03*
X37106Y-149606I-1575J0D01*
G01*
Y-152756D02*
G03*
X35531Y-151181I-1575J0D01*
G01*
X35531Y-154331D02*
G03*
X37106Y-152756I0J1575D01*
G01*
Y-155905D02*
G03*
X38681Y-154331I0J1575D01*
G01*
X-36909D02*
G03*
X-38484Y-155905I0J-1575D01*
G01*
Y-159055D02*
G03*
X-36909Y-160630I1575J0D01*
G01*
X-35335Y-155905D02*
G03*
X-36909Y-157480I0J-1575D01*
G01*
D02*
G03*
X-35335Y-159055I1575J0D01*
G01*
X38681Y-160630D02*
G03*
X37106Y-159055I-1575J0D01*
G01*
Y-162205D02*
G03*
X35531Y-160630I-1575J0D01*
G01*
X35531Y-163779D02*
G03*
X37106Y-162205I0J1575D01*
G01*
Y-165354D02*
G03*
X38681Y-163779I0J1575D01*
G01*
X-36909D02*
G03*
X-38484Y-165354I0J-1575D01*
G01*
Y-168504D02*
G03*
X-36909Y-170079I1575J0D01*
G01*
X-35335Y-165354D02*
G03*
X-36909Y-166929I0J-1575D01*
G01*
D02*
G03*
X-35335Y-168504I1575J0D01*
G01*
X38681Y-170079D02*
G03*
X37106Y-168504I-1575J0D01*
G01*
Y-171653D02*
G03*
X35531Y-170079I-1575J0D01*
G01*
X35531Y-173228D02*
G03*
X37106Y-171653I0J1575D01*
G01*
Y-174803D02*
G03*
X38681Y-173228I0J1575D01*
G01*
X-36909D02*
G03*
X-38484Y-174803I0J-1575D01*
G01*
Y-177953D02*
G03*
X-36909Y-179528I1575J0D01*
G01*
X-35335Y-174803D02*
G03*
X-36909Y-176378I0J-1575D01*
G01*
D02*
G03*
X-35335Y-177953I1575J0D01*
G01*
X-36909Y-72441D02*
G03*
X-35335Y-74016I1575J0D01*
G01*
X-36909Y-78740D02*
G03*
X-38484Y-80315I0J-1575D01*
G01*
Y-83465D02*
G03*
X-36909Y-85039I1575J0D01*
G01*
X-35335Y-80315D02*
G03*
X-36909Y-81890I0J-1575D01*
G01*
D02*
G03*
X-35335Y-83465I1575J0D01*
G01*
X-36909Y-88189D02*
G03*
X-38484Y-89764I0J-1575D01*
G01*
X-35335D02*
G03*
X-36909Y-91339I0J-1575D01*
G01*
X-38484Y-72441D02*
Y-70866D01*
X-35335Y-75590D02*
X35531D01*
X15059Y-78740D02*
X35531D01*
X38681D02*
Y-75590D01*
X18209Y-80315D02*
X37106D01*
X-21161D02*
X18209D01*
X-36909Y-78740D02*
X15059D01*
X-36909Y-85039D02*
X35531D01*
X-35335Y-83465D02*
X37106D01*
X15059Y-88189D02*
X35531D01*
X38681D02*
Y-85039D01*
X18209Y-89764D02*
X37106D01*
X-21161D02*
X18209D01*
X-36909Y-88189D02*
X15059D01*
X-38484Y-92913D02*
Y-89764D01*
X-36909Y-94488D02*
X35531D01*
X-35335Y-92913D02*
X37106D01*
X15059Y-97638D02*
X35531D01*
X38681D02*
Y-94488D01*
X18209Y-99213D02*
X37106D01*
X-21161D02*
X18209D01*
X-36909Y-97638D02*
X15059D01*
X-38484Y-102362D02*
Y-99213D01*
X-36909Y-103937D02*
X35531D01*
X-35335Y-99213D02*
X-21161D01*
X-35335Y-102362D02*
X37106D01*
X15059Y-107087D02*
X35531D01*
X38681D02*
Y-103937D01*
X18209Y-108661D02*
X37106D01*
X-21161D02*
X18209D01*
X-36909Y-107087D02*
X15059D01*
X-38484Y-111811D02*
Y-108661D01*
X-36909Y-113386D02*
X35531D01*
X-35335Y-108661D02*
X-21161D01*
X-35335Y-111811D02*
X37106D01*
X15059Y-116535D02*
X35531D01*
X38681D02*
Y-113386D01*
X18209Y-118110D02*
X37106D01*
X-21161D02*
X18209D01*
X-36909Y-116535D02*
X15059D01*
X-38484Y-121260D02*
Y-118110D01*
X-36909Y-122835D02*
X35531D01*
X-35335Y-118110D02*
X-21161D01*
X-35335Y-121260D02*
X37106D01*
X15059Y-125984D02*
X35531D01*
X38681D02*
Y-122835D01*
X18209Y-127559D02*
X37106D01*
X-21161D02*
X18209D01*
X-36909Y-125984D02*
X15059D01*
X-38484Y-130709D02*
Y-127559D01*
X-36909Y-132283D02*
X35531D01*
X-35335Y-127559D02*
X-21161D01*
X-35335Y-130709D02*
X37106D01*
X15059Y-135433D02*
X35531D01*
X38681D02*
Y-132283D01*
X18209Y-137008D02*
X37106D01*
X-21161D02*
X18209D01*
X-36909Y-135433D02*
X15059D01*
X-38484Y-140157D02*
Y-137008D01*
X-36909Y-141732D02*
X35531D01*
X-35335Y-137008D02*
X-21161D01*
X-35335Y-140157D02*
X37106D01*
X15059Y-144882D02*
X35531D01*
X38681D02*
Y-141732D01*
X18209Y-146457D02*
X37106D01*
X-21161D02*
X18209D01*
X-36909Y-144882D02*
X15059D01*
X-38484Y-149606D02*
Y-146457D01*
X-36909Y-151181D02*
X35531D01*
X-35335Y-146457D02*
X-21161D01*
X-35335Y-149606D02*
X37106D01*
X15059Y-154331D02*
X35531D01*
X38681D02*
Y-151181D01*
X18209Y-155905D02*
X37106D01*
X-21161D02*
X18209D01*
X-36909Y-154331D02*
X15059D01*
X-38484Y-159055D02*
Y-155905D01*
X-36909Y-160630D02*
X35531D01*
X-35335Y-155905D02*
X-21161D01*
X-35335Y-159055D02*
X37106D01*
X15059Y-163779D02*
X35531D01*
X38681D02*
Y-160630D01*
X18209Y-165354D02*
X37106D01*
X-21161D02*
X18209D01*
X-36909Y-163779D02*
X15059D01*
X-38484Y-168504D02*
Y-165354D01*
X-36909Y-170079D02*
X35531D01*
X-35335Y-165354D02*
X-21161D01*
X-35335Y-168504D02*
X37106D01*
X15059Y-173228D02*
X35531D01*
X38681D02*
Y-170079D01*
X18209Y-174803D02*
X37106D01*
X-21161D02*
X18209D01*
X-36909Y-173228D02*
X15059D01*
X-38484Y-177953D02*
Y-174803D01*
X-36909Y-179528D02*
X35531D01*
X-35335Y-174803D02*
X-21161D01*
X-35335Y-177953D02*
X37106D01*
X-36909Y-72441D02*
Y-70866D01*
X-38484Y-83465D02*
Y-80315D01*
X-35335D02*
X-21161D01*
X-35335Y-89764D02*
X-21161D01*
X-35335Y-74016D02*
X37106D01*
X-25984Y-21654D02*
Y-19438D01*
X-25760Y-19214D01*
X-39591Y-9154D02*
X-38708Y-10036D01*
X-39677Y-9068D02*
X-39591Y-9154D01*
X-42236Y-9068D02*
X-39677D01*
X-38708Y-10249D02*
Y-10036D01*
Y-10249D02*
X-37921Y-11037D01*
X-37330D01*
X-32342Y-20236D02*
X-32342D01*
X-29070Y-16963D02*
Y-9138D01*
X-32342Y-20236D02*
X-29070Y-16963D01*
X-34055Y-21949D02*
X-32342Y-20236D01*
X-34744Y-22638D02*
X-34437D01*
X-27652Y-19385D02*
Y-9725D01*
X-30709Y-22441D02*
X-27652Y-19385D01*
X-30709Y-22638D02*
Y-22441D01*
X-34055Y-22256D02*
Y-21949D01*
X-34437Y-22638D02*
X-34055Y-22256D01*
X-34744Y-28474D02*
Y-22638D01*
X-787Y-49311D02*
X1673Y-46850D01*
X2697Y-45827D01*
X-34055Y-13469D02*
Y-7715D01*
X-35895Y-15112D02*
X-35699D01*
X-34055Y-13469D01*
Y-12769D01*
X-35630Y-15893D02*
Y-15696D01*
X-38771Y-1134D02*
X-36571D01*
X-21754Y-33454D02*
X-21752Y-33456D01*
X-21754Y-33454D02*
Y-31918D01*
X-23356Y-30315D02*
X-21754Y-31918D01*
X-23720Y-30315D02*
X-23356D01*
X-25713Y-32327D02*
X-23720Y-30335D01*
X-25713Y-33432D02*
Y-32327D01*
Y-33432D02*
X-25689Y-33456D01*
X-27962Y26289D02*
X-27953Y26280D01*
X1157Y-23850D02*
X1550Y-23456D01*
X763D02*
X1157Y-23850D01*
X642Y-23335D02*
X763Y-23456D01*
X-16240Y-15757D02*
X-16215Y-15732D01*
X-16530Y-16047D02*
X-16240Y-15757D01*
X-16530Y-16047D02*
X-16241Y-16337D01*
X1747Y7299D02*
X1944Y7102D01*
X1427Y7619D02*
X1747Y7299D01*
X-282Y7619D02*
X1427D01*
X-388D02*
X-282D01*
X-36013Y-35197D02*
Y-34952D01*
X-36024Y-34941D02*
X-36013Y-34952D01*
X-36024Y-35728D02*
Y-34941D01*
X-21752Y-33456D02*
Y-32767D01*
X-25689Y-33456D02*
Y-32767D01*
X-16317Y-16412D02*
X-16241Y-16488D01*
X-16317Y-16412D02*
X-16241Y-16337D01*
X-36571Y2803D02*
X-34012D01*
X-32799Y1591D01*
X-31570D01*
X-36909Y-70866D02*
Y-58874D01*
X-33169Y-55134D01*
X-39429Y-39993D02*
Y-39567D01*
X-38968Y-41553D02*
Y-40454D01*
X-39429Y-39993D02*
X-38968Y-40454D01*
X-39567Y-39567D02*
Y-37697D01*
X-29869Y-40529D02*
X-29539Y-40858D01*
X-27473Y-43122D02*
Y-42925D01*
X-29539Y-40858D02*
X-27473Y-42925D01*
X-29869Y-36947D02*
X-28780Y-35857D01*
X-29869Y-40529D02*
Y-36947D01*
X-28780Y-35857D02*
X-26408D01*
X-25787Y-35236D01*
Y-33554D02*
X-25689Y-33456D01*
X-25787Y-35236D02*
Y-33554D01*
X-38968Y-41553D02*
X-38181Y-42340D01*
X-31570Y1591D02*
X-24483D01*
X-22121Y3953D01*
X-42770Y8909D02*
X-42720Y8858D01*
X-32425Y24250D02*
X-32407Y24269D01*
X-21334Y4740D02*
Y13401D01*
X-22121Y3953D02*
X-21334Y4740D01*
X-22860Y17389D02*
X-21334Y15862D01*
X-23647Y19636D02*
X-22860Y18849D01*
Y17389D02*
Y18849D01*
X-21334Y13401D02*
Y15862D01*
X-21217Y-15130D02*
X-21214Y-15133D01*
X639Y-23338D02*
X642Y-23335D01*
X-14247Y21275D02*
Y24048D01*
X-14261Y24063D02*
X-14247Y24048D01*
X-26772Y-22638D02*
Y-22441D01*
X-25984Y-21654D01*
X-25787D01*
X-25492Y-21358D01*
X-24409D01*
X-23302Y-21343D02*
X-22515Y-20555D01*
X-24394Y-21343D02*
X-23302D01*
X-24409Y-21358D02*
X-24394Y-21343D01*
X-35630Y8858D02*
Y9055D01*
X-31836Y13401D02*
X-29208D01*
X-35630Y8858D02*
X-34843Y9646D01*
X-14294Y-20851D02*
X-10735D01*
X-14294D02*
X-13690Y-20247D01*
Y-14124D01*
X-40996Y-1134D02*
X-38771D01*
X-38780Y-53740D02*
X-38484Y-54035D01*
Y-70866D02*
Y-54035D01*
X-21414Y-11193D02*
X-21217D01*
X-21020D01*
X-20233Y-10406D01*
Y-9513D01*
X-18184Y-7465D01*
Y-5496D01*
X-41831Y-43406D02*
X-41634Y-43209D01*
Y-35531D01*
X-34244Y-42340D02*
Y-42144D01*
X-32480Y-40380D01*
Y-37697D01*
X2697Y-41142D02*
Y-39370D01*
Y-45827D02*
Y-41142D01*
X-12992Y-49311D02*
X-787D01*
X-16929Y-45374D02*
X-12992Y-49311D01*
X-21752Y-40551D02*
X-16929Y-45374D01*
X-21752Y-40551D02*
Y-38456D01*
X1713Y-42126D02*
X2697Y-41142D01*
X-20531Y-35956D02*
X-18406Y-33830D01*
Y-33542D02*
X-15333Y-36614D01*
X-18406Y-33542D02*
Y-30512D01*
Y-33830D02*
Y-33542D01*
X-31496Y-30709D02*
Y-23425D01*
X-21220Y-35956D02*
X-20531D01*
X-31496Y-32776D02*
Y-30709D01*
X-32480Y-33760D02*
X-32185D01*
X-31890Y-33465D01*
Y-33169D01*
X-31496Y-32776D01*
Y-23425D02*
X-30709Y-22638D01*
X-38976Y-32706D02*
X-34744Y-28474D01*
X-23720Y-42937D02*
Y-38456D01*
Y-42937D02*
X-23536Y-43122D01*
X-12303Y-39370D02*
Y-37598D01*
X-13287Y-36614D02*
X-12303Y-37598D01*
X-15333Y-36614D02*
X-13287D01*
X-39862Y-33760D02*
X-39567D01*
X-41634Y-35531D02*
X-39862Y-33760D01*
X-38976Y-33465D02*
Y-32706D01*
X-39272Y-33760D02*
X-38976Y-33465D01*
X-39567Y-33760D02*
X-39272D01*
X-20596Y-23705D02*
X-18231Y-21339D01*
X-22515Y-24492D02*
X-21727Y-23705D01*
X-20596D01*
X-18231Y-21339D02*
Y-21143D01*
X-27953Y22343D02*
X-27898Y22288D01*
X-27852Y20313D02*
X-22908Y15370D01*
X-27898Y20313D02*
X-27852D01*
X-36571Y-1134D02*
X-34203D01*
X-36398Y-5334D02*
X-32624Y-1559D01*
X-34203Y-1134D02*
X-33053Y16D01*
X-32624Y-1559D02*
X-31570D01*
X-33053Y16D02*
X-31570D01*
X-34055Y-7715D02*
X-31570Y-5230D01*
Y-3134D01*
X-41043Y-5217D02*
Y-1181D01*
X-40996Y-1134D01*
X-27720Y18106D02*
X-24483Y14869D01*
X-30021Y18106D02*
X-27720D01*
X-32229Y20313D02*
X-30021Y18106D01*
X-24483Y13401D02*
Y14869D01*
X-32425Y20313D02*
X-32229D01*
X-22908Y13401D02*
Y15370D01*
X-19759Y13401D02*
Y19588D01*
X-19710Y19636D01*
X-27652Y-9725D02*
X-26711Y-8784D01*
X-24712D01*
X-22908Y-6980D01*
Y-5496D01*
X-29070Y-9138D02*
X-27298Y-7366D01*
X-25299D01*
X-24483Y-6550D01*
Y-5496D01*
X-18735Y-20614D02*
Y-10308D01*
X-16609Y-8182D01*
Y-5496D01*
X-10735Y-20851D02*
X-8373Y-18488D01*
X-5192D01*
X-16215Y-11795D02*
X-16019D01*
X-13690Y-14124D01*
X-15034Y13401D02*
Y16551D01*
X-14247Y17338D01*
X-16215Y-11795D02*
X-15822Y-11402D01*
Y-9433D01*
X-15034Y-8646D02*
Y-5496D01*
X-15822Y-9433D02*
X-15034Y-8646D01*
X320Y22260D02*
X911D01*
X4544Y18626D01*
Y16764D02*
Y18626D01*
Y16764D02*
X4560Y16748D01*
X-6373Y7890D02*
X-6373Y7890D01*
D55*
X-3223Y39386D02*
X-2239D01*
X-1062Y43679D02*
X-507Y43124D01*
X-8224Y43679D02*
X-1062D01*
X-2239Y39386D02*
X-1412Y40213D01*
X-1060D01*
X-507Y40766D02*
Y43124D01*
X-1060Y40213D02*
X-507Y40766D01*
X-9722Y40213D02*
X-9168Y40766D01*
X-10074Y40213D02*
X-9722D01*
X-9168Y40766D02*
Y42266D01*
X-11885Y39386D02*
X-10900D01*
X-10074Y40213D01*
X-9168Y42266D02*
X-8224Y43210D01*
Y43679D01*
X-44685Y-49016D02*
X-42323Y-51378D01*
X-44685Y-49016D02*
Y4686D01*
X-44316Y5055D01*
X-33760D01*
X-44838Y6315D02*
X-31570D01*
X-45965Y-50492D02*
Y5188D01*
X-44838Y6315D01*
X-9680Y-6677D02*
Y-1827D01*
X-10940Y-7270D02*
Y-2349D01*
X-34587Y12866D02*
X-32320Y15134D01*
X-39816Y12866D02*
X-34587D01*
X-32320Y15134D02*
X-28422D01*
X-42717Y-53937D02*
Y-53740D01*
X-45965Y-50492D02*
X-42717Y-53740D01*
X-41142Y-51378D02*
X-38780Y-53740D01*
X-42323Y-51378D02*
X-41142D01*
X-33760Y5055D02*
X-33445Y4740D01*
X-31570D01*
X-29208Y-7071D02*
Y-5496D01*
X-31275Y-9138D02*
X-29208Y-7071D01*
X-31471Y-9138D02*
X-31275D01*
X-31648Y3244D02*
X-31570Y3165D01*
X-41942Y14992D02*
X-39816Y12866D01*
X-28422Y15134D02*
X-27711Y14423D01*
X-41942Y14992D02*
Y15189D01*
X-27711Y13480D02*
Y14423D01*
Y13480D02*
X-27633Y13401D01*
X-35261Y18751D02*
X-33278Y16767D01*
X-28274D01*
X-26137Y14630D01*
X-41919Y17539D02*
Y19865D01*
Y15213D02*
Y17539D01*
X-37993Y24755D02*
Y27370D01*
X-26137Y13480D02*
Y14630D01*
X-37993Y23027D02*
Y24755D01*
X-41942Y15189D02*
X-41919Y15213D01*
X-37993Y23027D02*
X-37785Y22818D01*
X-37821Y24755D02*
X-36344D01*
X-35261Y18751D02*
Y23672D01*
X-36344Y24755D02*
X-35261Y23672D01*
X-26137Y13480D02*
X-26058Y13401D01*
X-11097Y-11402D02*
Y-9433D01*
X-12672Y-7858D02*
X-11097Y-9433D01*
X-12672Y-7858D02*
Y-3134D01*
X-6176Y-10614D02*
X-5192D01*
X-7240Y-9550D02*
X-6176Y-10614D01*
X-7240Y-9550D02*
Y-9117D01*
X-9680Y-6677D02*
X-7240Y-9117D01*
X-10940Y-7270D02*
X-8500Y-9710D01*
Y-12227D02*
Y-9710D01*
Y-12227D02*
X-6176Y-14551D01*
X-5192Y14779D02*
Y15764D01*
X-7396Y12575D02*
X-5192Y14779D01*
X-9404Y12575D02*
X-7396D01*
X-10940Y11039D02*
X-9404Y12575D01*
X-12672Y9465D02*
X-12593Y9543D01*
X-11651D01*
X-10940Y10254D01*
Y11039D01*
X-12672Y11039D02*
Y12220D01*
X-10782Y14110D01*
X-9798D01*
X-9129Y14779D01*
Y15764D01*
X-6176Y-14551D02*
X-5192D01*
X1107Y-19669D02*
Y-15339D01*
X-2387Y3165D02*
X1944D01*
X-12672Y4740D02*
X-7702D01*
X-6324Y3362D01*
Y3165D02*
Y3362D01*
X-10268Y3165D02*
X-7906Y803D01*
X2247D02*
X3470Y-420D01*
X-7906Y803D02*
X2247D01*
X1107Y-11402D02*
X1304D01*
X2170Y-10536D01*
Y-10339D01*
X3470Y-9040D01*
Y-420D01*
X-12672Y3165D02*
X-10268D01*
X-3617Y-1953D02*
X1107D01*
X-12672Y1591D02*
X-10900D01*
X-7554Y-1756D01*
Y-1953D02*
Y-1756D01*
X-12672Y16D02*
X-12593Y-63D01*
X-11444D01*
X-9680Y-1827D01*
X-12672Y-1559D02*
X-12593Y-1638D01*
X-11651D01*
X-10940Y-2349D01*
D56*
X1225Y40240D02*
X2340Y41354D01*
X4257D01*
X-1219Y36827D02*
X1225Y39271D01*
Y40240D01*
X-7436Y40793D02*
X-6284Y41945D01*
X-7554Y36630D02*
X-7436Y36748D01*
Y40793D01*
X-6284Y41945D02*
X-3223D01*
Y36827D02*
X-1219D01*
X-31898Y-16134D02*
X-31791Y-16240D01*
X-31942Y-16090D02*
X-31898Y-16134D01*
X-32004Y-16240D02*
X-31641Y-15876D01*
Y-13244D02*
X-31471Y-13075D01*
X-31641Y-15876D02*
Y-13244D01*
X-37785Y19865D02*
X-37776Y19857D01*
Y17734D02*
Y19857D01*
Y17734D02*
X-37768Y17726D01*
X-41919Y22818D02*
X-41900Y22836D01*
Y24776D01*
X-41882Y24795D01*
X34669Y83244D02*
X42740D01*
X44154Y44252D02*
Y81831D01*
X42740Y83244D02*
X44154Y81831D01*
X42520Y42618D02*
X44154Y44252D01*
X31284Y86630D02*
X34669Y83244D01*
X-41339Y86630D02*
X31284D01*
X2977Y29838D02*
X3076Y29937D01*
X418Y29838D02*
X2977D01*
X320Y29740D02*
X418Y29838D01*
X2682Y17338D02*
Y17783D01*
X4454Y41354D02*
X7096Y43996D01*
X35728D01*
X4257Y41354D02*
X4454D01*
X41339Y86630D02*
X43307D01*
X46358Y83579D01*
X40650Y39075D02*
X43898D01*
X35728Y43996D02*
X40650Y39075D01*
X43898D02*
X46358Y41535D01*
Y83579D01*
X4257Y37417D02*
X9888D01*
X4060D02*
X4257D01*
X11857Y39386D02*
X18036D01*
X9888Y37417D02*
X11857Y39386D01*
X-5746Y32460D02*
X-4430Y31144D01*
X-7554Y34268D02*
X-5746Y32460D01*
X517Y33874D02*
X4060Y37417D01*
X-4332Y33874D02*
X517D01*
X-5746Y32460D02*
X-4332Y33874D01*
X-4430Y26000D02*
Y31144D01*
X-7554Y34268D02*
Y36630D01*
X-11885Y36827D02*
X-7751D01*
X-7554Y36630D01*
X-4430Y21659D02*
Y26000D01*
X320D01*
X1001Y19465D02*
X2682Y17783D01*
X-2236Y19465D02*
X1001D01*
X-4430Y21659D02*
X-2236Y19465D01*
X320Y26000D02*
X5438D01*
D57*
X-33672Y-17908D02*
X-32004Y-16240D01*
X-35895Y-19049D02*
X-35699D01*
X-34557Y-17908D01*
X-33672D01*
X-38005Y15189D02*
X-37844Y15351D01*
Y17650D01*
X-37768Y17726D01*
X-6176Y-6677D02*
X-5192D01*
X-7456Y-5397D02*
X-6176Y-6677D01*
X-7554Y-5397D02*
X-7456D01*
X38Y7299D02*
X1747D01*
X-282Y7619D02*
X38Y7299D01*
X-2436Y7890D02*
X-2241Y7694D01*
X-464D01*
X-388Y7619D01*
X-1255Y12816D02*
Y15764D01*
Y12816D02*
X-1245Y12807D01*
D58*
X-2657Y-45965D02*
Y-43857D01*
X-2303Y-43503D01*
Y-39370D01*
X-41043Y2756D02*
X-36815D01*
X-36768Y2803D01*
X-36571D01*
X-42770Y8909D02*
X-39567D01*
Y8858D02*
Y8909D01*
X-41930Y24843D02*
Y27370D01*
Y24843D02*
X-41882Y24795D01*
X-32407Y24269D02*
Y27215D01*
Y24250D02*
Y24269D01*
X-32425Y24250D02*
X-32407D01*
X-27916Y26280D02*
Y28766D01*
X-27953Y26280D02*
X-27916D01*
X-27953Y22343D02*
X-27898D01*
Y22288D02*
Y22343D01*
Y20313D02*
Y22288D01*
X-14261Y21275D02*
Y24063D01*
Y21275D02*
X-14247D01*
X3076Y29937D02*
X5438D01*
X418Y29838D02*
X517Y29937D01*
X3076D01*
X-2080Y-23456D02*
X763D01*
X1107D01*
X-11097Y-18095D02*
Y-15339D01*
X-21214Y-15133D02*
Y-15130D01*
Y-17562D02*
Y-15133D01*
X-21217Y-15130D02*
X-21214D01*
X-16241Y-15732D02*
X-16240D01*
Y-15757D02*
Y-15732D01*
Y-18110D02*
Y-15757D01*
Y-15732D02*
X-16215D01*
X1107Y-8252D02*
Y-5890D01*
X-26305Y33219D02*
X-23647D01*
X-19710Y19636D02*
Y24361D01*
Y28298D02*
Y33219D01*
Y38140D01*
Y42077D02*
Y51428D01*
D59*
X19783Y39370D02*
D03*
X33563D02*
D03*
D60*
X-8224Y43679D02*
D03*
X-7554Y-5397D02*
D03*
X-2080Y-23456D02*
D03*
X-21214Y-17562D02*
D03*
X-16240Y-18110D02*
D03*
X-388Y7619D02*
D03*
X-2303Y-43503D02*
D03*
X42520Y42618D02*
D03*
X-36013Y-35197D02*
D03*
X-23720Y-30315D02*
D03*
X-26870Y8268D02*
D03*
X-17618Y8071D02*
D03*
X-17717Y-492D02*
D03*
X-26870Y-591D02*
D03*
X-45866Y8760D02*
D03*
X-41732Y-12303D02*
D03*
X-31496Y-30709D02*
D03*
X-41831Y-43406D02*
D03*
X-16929Y-45374D02*
D03*
X-37439Y-26715D02*
D03*
X-38916Y-29176D02*
D03*
X-27526Y-29128D02*
D03*
X-29002Y-26668D02*
D03*
X-18406Y-30512D02*
D03*
X-33169Y-55134D02*
D03*
X-39429Y-39567D02*
D03*
X-31791Y-16240D02*
D03*
X-29539Y-40858D02*
D03*
X-38771Y-1200D02*
D03*
X-27898Y20313D02*
D03*
X-38858Y2772D02*
D03*
X-42770Y8909D02*
D03*
X-37768Y17726D02*
D03*
X-41882Y24795D02*
D03*
X-26397Y37463D02*
D03*
X-16142Y31693D02*
D03*
Y34646D02*
D03*
Y37598D02*
D03*
Y40551D02*
D03*
Y43504D02*
D03*
X-23254Y37550D02*
D03*
Y40503D02*
D03*
Y43455D02*
D03*
X-32407Y27215D02*
D03*
X-27916Y28766D02*
D03*
X-26305Y33219D02*
D03*
X-11097Y-18095D02*
D03*
X1107Y-8252D02*
D03*
X-1245Y12807D02*
D03*
X-14261Y24063D02*
D03*
X3076Y29937D02*
D03*
M02*
